Coordinates
version=1
nRows=17
nColumns=40
inDegrees=yes

Units are S.I. units (second, meters, Newtons, ...)
Angles are in degrees.

endheader
time	pelvis_tilt	pelvis_list	pelvis_rotation	pelvis_tx	pelvis_ty	pelvis_tz	hip_flexion_r	hip_adduction_r	hip_rotation_r	knee_angle_r	knee_angle_r_beta	ankle_angle_r	subtalar_angle_r	mtp_angle_r	hip_flexion_l	hip_adduction_l	hip_rotation_l	knee_angle_l	knee_angle_l_beta	ankle_angle_l	subtalar_angle_l	mtp_angle_l	lumbar_extension	lumbar_bending	lumbar_rotation	arm_flex_r	arm_add_r	arm_rot_r	elbow_flex_r	pro_sup_r	wrist_flex_r	wrist_dev_r	arm_flex_l	arm_add_l	arm_rot_l	elbow_flex_l	pro_sup_l	wrist_flex_l	wrist_dev_l
     11.21750000	     -3.98593629	     -5.20575804	      7.28774065	      1.10259131	      0.92657060	      0.44655588	      4.15154621	      0.17659187	    -14.22379842	     24.76812348	     24.76812348	     15.80547739	     -3.63648254	     -5.82878972	     24.69911735	     -5.96657432	     -2.64020821	     24.39429939	     24.39429939	      7.63500418	    -11.82536946	      1.18384311	     -9.42051598	      3.02048188	      2.93918379	     26.00850903	    -14.46520213	      7.63699264	     56.95799251	     44.70478948	      0.00000000	      0.00000000	      2.56048230	    -10.58599295	     -5.84357761	     37.92861121	     45.69697220	      0.00000000	      0.00000000
     11.23057143	     -4.07313397	     -5.14119711	      6.97700668	      1.10221801	      0.92705728	      0.44427486	      5.53656685	     -0.40894598	    -13.61928720	     27.64633073	     27.64633073	     14.69466777	     -5.15306366	     -7.84732898	     24.24198172	     -5.89387926	     -3.06005139	     24.19528390	     24.19528390	      7.86112560	    -11.72608194	      0.76566230	     -9.45813814	      2.88910692	      2.96267705	     24.87964184	    -14.48150912	      9.11057967	     54.12613470	     44.78034514	      0.00000000	      0.00000000	      3.34184933	    -10.85490875	     -5.55246228	     38.99533433	     45.71152516	      0.00000000	      0.00000000
     11.24364286	     -4.11238120	     -5.05799640	      6.59807766	      1.10171779	      0.92750112	      0.44210756	      7.10147574	     -1.04060409	    -12.96028744	     30.89030151	     30.89030151	     13.48957186	     -6.64343468	     -9.52973767	     23.78036737	     -5.82523592	     -3.50980896	     24.09470408	     24.09470408	      8.06273142	    -11.73442110	      0.38653916	     -9.63209927	      2.75159657	      3.13829311	     23.69254127	    -14.49596980	     10.18852385	     51.46748745	     44.84943240	      0.00000000	      0.00000000	      4.29259808	    -11.04599504	     -5.23881851	     39.71976452	     45.71490225	      0.00000000	      0.00000000
     11.25671429	     -4.16689147	     -4.93496412	      6.23448576	      1.10119960	      0.92783835	      0.43994741	      8.79858935	     -1.70244947	    -12.25362507	     34.23957008	     34.23957008	     11.59475241	     -8.54301753	    -12.32732784	     23.22920126	     -5.68719057	     -3.94293481	     23.79759952	     23.79759952	      8.17754020	    -11.74576410	     -0.19761584	     -9.70090094	      2.62845482	      2.82039840	     22.97559871	    -14.05036370	     11.72957644	     47.84314858	     44.94972223	      0.00000000	      0.00000000	      4.84505078	    -11.52889435	     -4.54158800	     40.57238601	     45.69303874	      0.00000000	      0.00000000
     11.26978571	     -4.14922020	     -4.75242141	      5.87171777	      1.10058041	      0.92809551	      0.43782299	     10.64782121	     -2.50924909	    -11.70044337	     38.03873873	     38.03873873	     10.30946203	     -9.57100125	    -12.86215295	     22.70058916	     -5.49957557	     -4.38162131	     23.69651067	     23.69651067	      8.47324650	    -11.71729339	     -0.37664730	     -9.95722108	      2.44153019	      2.86202812	     21.30248677	    -14.05619389	     12.10986540	     46.62753463	     44.97213891	      0.00000000	      0.00000000	      5.79738128	    -11.71715549	     -4.57715479	     41.21164103	     45.71769920	      0.00000000	      0.00000000
     11.28285714	     -4.20381428	     -4.63020745	      5.48441499	      1.09988535	      0.92816226	      0.43588422	     12.69706262	     -3.15431746	    -10.94975639	     41.87770768	     41.87770768	      8.61673379	    -10.99132093	    -13.31661117	     22.27290631	     -5.36482028	     -4.77447798	     23.59981352	     23.59981352	      8.72546930	    -11.80355868	     -0.57380896	    -10.09401123	      2.29544634	      3.01610766	     19.60666058	    -14.12400970	     12.53383172	     44.93790631	     45.01067006	      0.00000000	      0.00000000	      6.73301415	    -11.87775542	     -4.50819783	     41.94255734	     45.73237179	      0.00000000	      0.00000000
     11.29592857	     -4.12124003	     -4.49553984	      5.15663271	      1.09916316	      0.92837251	      0.43392068	     14.61362897	     -3.78854887	    -10.30228944	     45.62821303	     45.62821303	      6.69691647	    -12.30780718	    -13.52109631	     21.76180705	     -5.21417838	     -5.09158533	     23.59176627	     23.59176627	      8.93743612	    -11.88971285	     -0.75957340	    -10.38698228	      2.21362779	      2.92611080	     18.01197185	    -14.12347030	     12.86819185	     43.35690937	     45.04871798	      0.00000000	      0.00000000	      7.65375649	    -12.12094604	     -4.42011777	     42.62294707	     45.74337412	      0.00000000	      0.00000000
     11.30900000	     -4.09681638	     -4.40860653	      4.78717416	      1.09845864	      0.92847807	      0.43212219	     16.63098626	     -4.28993275	     -9.56765832	     49.25991945	     49.25991945	      4.58947276	    -13.62725239	    -13.46324688	     21.30281075	     -5.11015440	     -5.37958691	     23.55621561	     23.55621561	      9.18810365	    -12.04300586	     -0.95496783	    -10.57224294	      2.16485232	      2.87444731	     16.39368806	    -14.14640829	     13.14529565	     41.60105087	     45.09628329	      0.00000000	      0.00000000	      8.47277560	    -12.35544695	     -4.27231564	     43.36652186	     45.74815592	      0.00000000	      0.00000000
     11.32207143	     -4.01798660	     -4.46799925	      4.44821596	      1.09780935	      0.92872734	      0.43047520	     18.54266235	     -4.51512848	     -8.84244865	     52.61170286	     52.61170286	      2.50928488	    -14.93107768	    -12.72088475	     20.79037997	     -5.14230237	     -5.51685335	     23.46358149	     23.46358149	      9.21506974	    -12.39722959	     -1.61144599	    -10.71135149	      2.31633854	      2.31281539	     16.25385164	    -13.25821483	     13.00572444	     35.87823336	     45.35872235	      0.00000000	      0.00000000	      8.48824324	    -13.25041653	     -2.37531703	     45.30727141	     45.62665586	      0.00000000	      0.00000000
     11.33514286	     -3.95782036	     -4.41140188	      4.11857233	      1.09715558	      0.92892979	      0.42877162	     20.43292739	     -4.92861905	     -8.28592702	     55.75563234	     55.75563234	      0.54842048	    -15.71657942	    -11.97832191	     20.31200156	     -5.06054425	     -5.75984230	     23.44402374	     23.44402374	      9.49230026	    -12.51145590	     -1.69809349	    -10.92190158	      2.35648893	      2.10509863	     14.45894582	    -13.41592023	     12.97917543	     34.88857230	     45.39056049	      0.00000000	      0.00000000	      9.24028787	    -13.50411343	     -2.44806683	     46.02542073	     45.65805521	      0.00000000	      0.00000000
     11.34821429	     -3.93081599	     -4.48112973	      3.74629121	      1.09652492	      0.92918626	      0.42730500	     22.31327417	     -5.09181513	     -7.73145825	     58.58441235	     58.58441235	     -0.96088353	    -16.38124494	    -10.06493268	     19.88768574	     -5.12754206	     -6.01496531	     23.43153289	     23.43153289	      9.76662588	    -12.74717210	     -1.72037095	    -11.03014226	      2.51062327	      2.27359158	     12.59395196	    -13.70167209	     12.59890076	     33.42187788	     45.46664448	      0.00000000	      0.00000000	      9.97804949	    -13.59306936	     -2.31809718	     47.27540067	     45.68364028	      0.00000000	      0.00000000
     11.36128571	     -3.72417507	     -4.46626940	      3.48250811	      1.09604062	      0.92979763	      0.42568414	     23.78891754	     -5.38110231	     -7.32762875	     60.87543261	     60.87543261	     -2.41868019	    -16.63640206	     -9.23413045	     19.24534055	     -5.07785817	     -6.14958226	     23.40569846	     23.40569846	     10.06760601	    -12.78362248	     -1.78183207	    -11.39773195	      2.62306582	      1.67914347	     10.98858032	    -13.81277558	     12.45240798	     32.63992591	     45.49760985	      0.00000000	      0.00000000	     10.57563467	    -14.08062226	     -2.38229641	     47.78585095	     45.70659021	      0.00000000	      0.00000000
     11.37435714	     -3.68570080	     -4.59576842	      3.07134764	      1.09546117	      0.93026607	      0.42452533	     25.60516090	     -5.33811406	     -6.79642594	     63.18911799	     63.18911799	     -1.60427201	    -15.85024490	     -2.47471174	     18.76959210	     -5.21530228	     -6.35920184	     23.34183637	     23.34183637	     10.46796581	    -12.86248590	     -1.50440699	    -11.59611255	      2.87172847	      1.57251041	      9.53171496	    -13.48990779	      9.30172406	     30.65307327	     45.79935929	      0.00000000	      0.00000000	     10.53114385	    -14.70713110	     -1.27189204	     50.46481868	     45.70684711	      0.00000000	      0.00000000
     11.38742857	     -3.63077144	     -4.65110164	      2.65585181	      1.09500756	      0.93083555	      0.42335130	     27.01189320	     -5.42678110	     -6.46989742	     64.51357667	     64.51357667	     -2.55290603	    -16.10965092	     -2.16278142	     18.20378078	     -5.26389850	     -6.62693698	     23.17164265	     23.17164265	     10.73417046	    -12.99168845	     -1.47732810	    -11.69915388	      3.05713430	      1.35628626	      7.87861370	    -13.79477309	      9.04985586	     29.89581516	     45.83576566	      0.00000000	      0.00000000	     11.16369944	    -14.94088505	     -1.43162510	     51.01282591	     45.74195999	      0.00000000	      0.00000000
     11.40050000	     -3.57170670	     -4.76950457	      2.19462791	      1.09452953	      0.93161665	      0.42238160	     28.27022648	     -5.33625069	     -6.12000862	     65.27156414	     65.27156414	     -3.08170780	    -16.18789110	     -1.58508162	     17.59971834	     -5.37974256	     -6.85143513	     22.93737045	     22.93737045	     10.94596925	    -13.15375571	     -1.32408936	    -11.91745121	      3.29047368	      1.49951054	      6.09664522	    -14.20406068	      8.42322467	     29.07863654	     45.90148270	      0.00000000	      0.00000000	     11.77836026	    -14.96277694	     -1.54530237	     52.18771432	     45.78570418	      0.00000000	      0.00000000
     11.41357143	     -3.48887392	     -4.91377962	      1.72262765	      1.09414728	      0.93244709	      0.42161044	     29.39851399	     -5.21730981	     -5.90994513	     65.62872222	     65.62872222	     -2.56196592	    -15.71084380	      0.91927818	     16.96870136	     -5.53906375	     -7.12828594	     22.72881097	     22.72881097	     11.35781493	    -13.22321098	     -0.81913627	    -12.18295912	      3.55737087	      1.69658938	      4.46353918	    -13.50470047	      0.23940785	     27.97481062	     46.51436548	      0.00000000	      0.00000000	     12.15395926	    -15.29781530	     -0.95244782	     53.93642847	     46.00079820	      0.00000000	      0.00000000
     11.42664286	     -3.43851167	     -5.02885221	      1.17216201	      1.09378149	      0.93332200	      0.42102254	     30.32186461	     -5.06215142	     -5.72679767	     65.23578981	     65.23578981	     -2.65640618	    -15.65803102	      0.89999019	     16.25815497	     -5.66164406	     -7.46210117	     22.32091054	     22.32091054	     11.55362947	    -13.40772653	     -0.68840631	    -12.33919485	      3.74839477	      1.67967233	      2.97387403	    -13.90908545	      0.02222760	     27.43133706	     46.53671952	      0.00000000	      0.00000000	     12.60598465	    -15.44882846	     -1.14163784	     54.97574373	     46.04502441	      0.00000000	      0.00000000
